<?xml version="1.0" standalone="no"?>
<!DOCTYPE svg PUBLIC "-//W3C//DTD SVG 20010904//EN"
 "http://www.w3.org/TR/2001/REC-SVG-20010904/DTD/svg10.dtd">
<svg version="1.0" xmlns="http://www.w3.org/2000/svg"
 width="1632.000000pt" height="2042.000000pt" viewBox="0 0 1632.000000 2042.000000"
 preserveAspectRatio="xMidYMid meet">
<metadata>
Created by potrace 1.14, written by Peter Selinger 2001-2017
</metadata>
<g transform="translate(0.000000,2042.000000) scale(0.100000,-0.100000)"
fill="#000000" stroke="none">
<path d="M11700 19944 c-19 -2 -80 -9 -135 -15 -100 -10 -302 -47 -383 -68
l-42 -12 0 -51 0 -51 128 7 c322 17 444 18 553 7 614 -64 1017 -348 1136 -800
36 -138 43 -357 15 -492 -89 -431 -443 -768 -904 -863 -366 -75 -974 -15
-1673 164 -392 101 -743 213 -1595 510 -344 120 -719 249 -835 288 -1075 359
-1844 533 -2620 593 -225 17 -669 15 -858 -5 -806 -84 -1505 -362 -2103 -837
-156 -124 -438 -404 -558 -554 -413 -517 -659 -1110 -717 -1729 -15 -160 -7
-521 16 -696 74 -583 278 -1023 640 -1385 201 -202 414 -351 730 -510 154 -78
573 -255 603 -255 5 0 15 21 22 47 13 54 21 43 -89 122 -215 155 -370 423
-428 741 -24 137 -24 416 1 530 120 550 588 976 1208 1102 103 21 139 23 408
23 311 -1 420 -10 750 -61 707 -109 1354 -284 3034 -819 1400 -446 1898 -588
2536 -726 474 -103 832 -148 1223 -156 l277 -6 0 -1252 0 -1251 -982 -858
c-541 -472 -983 -863 -983 -869 0 -6 442 -409 983 -894 l982 -884 0 -1828 0
-1829 -102 -36 c-712 -252 -1564 -386 -2442 -386 -2036 1 -3611 741 -4544
2137 -437 653 -718 1459 -821 2353 -96 837 -46 1795 140 2636 51 232 127 516
142 530 9 9 1558 693 1629 720 17 6 18 -175 20 -3673 l3 -3680 1675 738 1675
737 3 3771 c1 2074 0 3771 -2 3771 -5 0 -4907 -2189 -4920 -2197 -51 -32 251
649 414 932 231 403 511 766 849 1106 410 410 832 721 1337 985 l143 75 -13
37 c-16 45 2 46 -266 -20 -1633 -401 -3138 -1217 -4249 -2303 -578 -565 -1031
-1181 -1367 -1860 -377 -763 -578 -1519 -635 -2385 -23 -351 -3 -918 47 -1310
288 -2302 1672 -4269 3814 -5420 926 -498 2033 -833 3120 -944 356 -37 452
-41 940 -41 530 1 690 9 1110 61 1982 241 3560 1136 4608 2612 646 910 1079
2057 1256 3327 57 411 96 914 96 1248 l0 137 -38 0 -38 0 -49 -122 c-110 -279
-285 -642 -430 -893 -551 -955 -1302 -1709 -2230 -2240 -190 -109 -675 -345
-709 -345 -3 0 -6 811 -5 1803 l0 1802 985 883 c541 486 984 887 983 890 0 4
-443 399 -984 877 l-984 870 -1 1240 0 1241 157 17 c1150 129 2099 759 2576
1713 227 454 329 921 314 1444 -11 378 -69 664 -204 995 -370 912 -1328 1578
-2538 1765 -117 19 -192 23 -455 25 -173 2 -331 1 -350 -1z"/>
</g>
</svg>
